<svg width="20" height="40" viewBox="0 0 20 40" fill="none" xmlns="http://www.w3.org/2000/svg">
<path d="M1.21875 15.0479V14.0703C1.21875 13.3678 1.37109 12.7288 1.67578 12.1533C1.98047 11.5778 2.42904 11.1165 3.02148 10.7695C3.61393 10.4225 4.3418 10.249 5.20508 10.249C6.09375 10.249 6.83431 10.4225 7.42676 10.7695C8.02767 11.1165 8.47624 11.5778 8.77246 12.1533C9.07715 12.7288 9.22949 13.3678 9.22949 14.0703V15.0479C9.22949 15.7334 9.07715 16.3639 8.77246 16.9395C8.47624 17.515 8.0319 17.9762 7.43945 18.3232C6.84701 18.6702 6.11491 18.8438 5.24316 18.8438C4.36296 18.8438 3.6224 18.6702 3.02148 18.3232C2.42904 17.9762 1.98047 17.515 1.67578 16.9395C1.37109 16.3639 1.21875 15.7334 1.21875 15.0479ZM3.64355 14.0703V15.0479C3.64355 15.3441 3.69857 15.6276 3.80859 15.8984C3.92708 16.1608 4.10482 16.3766 4.3418 16.5459C4.58724 16.7067 4.88346 16.7871 5.23047 16.7871C5.5944 16.7871 5.89062 16.7067 6.11914 16.5459C6.34766 16.3766 6.51693 16.1608 6.62695 15.8984C6.73698 15.6276 6.79199 15.3441 6.79199 15.0479V14.0703C6.79199 13.7572 6.73275 13.4694 6.61426 13.207C6.50423 12.9362 6.33073 12.7204 6.09375 12.5596C5.86523 12.3903 5.56901 12.3057 5.20508 12.3057C4.86654 12.3057 4.57878 12.3903 4.3418 12.5596C4.10482 12.7204 3.92708 12.9362 3.80859 13.207C3.69857 13.4694 3.64355 13.7572 3.64355 14.0703ZM10.0547 25.4453V24.4678C10.0547 23.7738 10.207 23.139 10.5117 22.5635C10.8249 21.988 11.2777 21.5267 11.8701 21.1797C12.471 20.8327 13.2074 20.6592 14.0791 20.6592C14.9593 20.6592 15.6956 20.8327 16.2881 21.1797C16.8805 21.5267 17.3291 21.988 17.6338 22.5635C17.9385 23.139 18.0908 23.7738 18.0908 24.4678V25.4453C18.0908 26.1393 17.9385 26.7741 17.6338 27.3496C17.3376 27.9251 16.8932 28.3864 16.3008 28.7334C15.7083 29.0804 14.9762 29.2539 14.1045 29.2539C13.2243 29.2539 12.4837 29.0804 11.8828 28.7334C11.2819 28.3864 10.8249 27.9251 10.5117 27.3496C10.207 26.7741 10.0547 26.1393 10.0547 25.4453ZM12.4922 24.4678V25.4453C12.4922 25.75 12.5599 26.0378 12.6953 26.3086C12.8307 26.5794 13.0169 26.7952 13.2539 26.9561C13.4993 27.1169 13.7829 27.1973 14.1045 27.1973C14.5107 27.1973 14.8281 27.1169 15.0566 26.9561C15.2852 26.7952 15.4417 26.5794 15.5264 26.3086C15.6195 26.0378 15.666 25.75 15.666 25.4453V24.4678C15.666 24.1631 15.6068 23.8796 15.4883 23.6172C15.3698 23.3464 15.1921 23.1305 14.9551 22.9697C14.7266 22.8005 14.4346 22.7158 14.0791 22.7158C13.7236 22.7158 13.4274 22.8005 13.1904 22.9697C12.9619 23.1305 12.7884 23.3464 12.6699 23.6172C12.5514 23.8796 12.4922 24.1631 12.4922 24.4678ZM14.9805 13.1562L5.9541 27.6035L4.17676 26.6641L13.2031 12.2168L14.9805 13.1562Z" fill="black"/>
</svg>
